<?xml version="1.0" encoding="UTF-8" standalone="no"?>
<svg
xmlns="http://www.w3.org/2000/svg"
version="1.0"
width="1600" height="1600"
id="11-simplex_t0.svg">
<!-- Graph: v=12 e=66 -->
<!-- Projection: Point overlap:1 ,  visible v=12 e=66 -->
<g style="stroke:#000000;stroke-width:6.0;stroke-opacity:0.90;">
<line x1="1534.479" y1="800.000" x2="1436.078" y2="1167.240"/>
<line x1="1534.479" y1="800.000" x2="1167.240" y2="1436.078"/>
<line x1="1534.479" y1="800.000" x2="800.000" y2="1534.479"/>
<line x1="1534.479" y1="800.000" x2="432.760" y2="1436.078"/>
<line x1="1534.479" y1="800.000" x2="163.923" y2="1167.240"/>
<line x1="1534.479" y1="800.000" x2="65.521" y2="800.000"/>
<line x1="1534.479" y1="800.000" x2="163.923" y2="432.760"/>
<line x1="1534.479" y1="800.000" x2="432.760" y2="163.923"/>
<line x1="1534.479" y1="800.000" x2="800.000" y2="65.521"/>
<line x1="1534.479" y1="800.000" x2="1167.240" y2="163.923"/>
<line x1="1534.479" y1="800.000" x2="1436.078" y2="432.760"/>
<line x1="1436.078" y1="1167.240" x2="1167.240" y2="1436.078"/>
<line x1="1436.078" y1="1167.240" x2="800.000" y2="1534.479"/>
<line x1="1436.078" y1="1167.240" x2="432.760" y2="1436.078"/>
<line x1="1436.078" y1="1167.240" x2="163.923" y2="1167.240"/>
<line x1="1436.078" y1="1167.240" x2="65.521" y2="800.000"/>
<line x1="1436.078" y1="1167.240" x2="163.923" y2="432.760"/>
<line x1="1436.078" y1="1167.240" x2="432.760" y2="163.923"/>
<line x1="1436.078" y1="1167.240" x2="800.000" y2="65.521"/>
<line x1="1436.078" y1="1167.240" x2="1167.240" y2="163.923"/>
<line x1="1436.078" y1="1167.240" x2="1436.078" y2="432.760"/>
<line x1="1167.240" y1="1436.078" x2="800.000" y2="1534.479"/>
<line x1="1167.240" y1="1436.078" x2="432.760" y2="1436.078"/>
<line x1="1167.240" y1="1436.078" x2="163.923" y2="1167.240"/>
<line x1="1167.240" y1="1436.078" x2="65.521" y2="800.000"/>
<line x1="1167.240" y1="1436.078" x2="163.923" y2="432.760"/>
<line x1="1167.240" y1="1436.078" x2="432.760" y2="163.923"/>
<line x1="1167.240" y1="1436.078" x2="800.000" y2="65.521"/>
<line x1="1167.240" y1="1436.078" x2="1167.240" y2="163.923"/>
<line x1="1167.240" y1="1436.078" x2="1436.078" y2="432.760"/>
<line x1="800.000" y1="1534.479" x2="432.760" y2="1436.078"/>
<line x1="800.000" y1="1534.479" x2="163.923" y2="1167.240"/>
<line x1="800.000" y1="1534.479" x2="65.521" y2="800.000"/>
<line x1="800.000" y1="1534.479" x2="163.923" y2="432.760"/>
<line x1="800.000" y1="1534.479" x2="432.760" y2="163.923"/>
<line x1="800.000" y1="1534.479" x2="800.000" y2="65.521"/>
<line x1="800.000" y1="1534.479" x2="1167.240" y2="163.923"/>
<line x1="800.000" y1="1534.479" x2="1436.078" y2="432.760"/>
<line x1="432.760" y1="1436.078" x2="163.923" y2="1167.240"/>
<line x1="432.760" y1="1436.078" x2="65.521" y2="800.000"/>
<line x1="432.760" y1="1436.078" x2="163.923" y2="432.760"/>
<line x1="432.760" y1="1436.078" x2="432.760" y2="163.923"/>
<line x1="432.760" y1="1436.078" x2="800.000" y2="65.521"/>
<line x1="432.760" y1="1436.078" x2="1167.240" y2="163.923"/>
<line x1="432.760" y1="1436.078" x2="1436.078" y2="432.760"/>
<line x1="163.923" y1="1167.240" x2="65.521" y2="800.000"/>
<line x1="163.923" y1="1167.240" x2="163.923" y2="432.760"/>
<line x1="163.923" y1="1167.240" x2="432.760" y2="163.923"/>
<line x1="163.923" y1="1167.240" x2="800.000" y2="65.521"/>
<line x1="163.923" y1="1167.240" x2="1167.240" y2="163.923"/>
<line x1="163.923" y1="1167.240" x2="1436.078" y2="432.760"/>
<line x1="65.521" y1="800.000" x2="163.923" y2="432.760"/>
<line x1="65.521" y1="800.000" x2="432.760" y2="163.923"/>
<line x1="65.521" y1="800.000" x2="800.000" y2="65.521"/>
<line x1="65.521" y1="800.000" x2="1167.240" y2="163.923"/>
<line x1="65.521" y1="800.000" x2="1436.078" y2="432.760"/>
<line x1="163.923" y1="432.760" x2="432.760" y2="163.923"/>
<line x1="163.923" y1="432.760" x2="800.000" y2="65.521"/>
<line x1="163.923" y1="432.760" x2="1167.240" y2="163.923"/>
<line x1="163.923" y1="432.760" x2="1436.078" y2="432.760"/>
<line x1="432.760" y1="163.923" x2="800.000" y2="65.521"/>
<line x1="432.760" y1="163.923" x2="1167.240" y2="163.923"/>
<line x1="432.760" y1="163.923" x2="1436.078" y2="432.760"/>
<line x1="800.000" y1="65.521" x2="1167.240" y2="163.923"/>
<line x1="800.000" y1="65.521" x2="1436.078" y2="432.760"/>
<line x1="1167.240" y1="163.923" x2="1436.078" y2="432.760"/>
</g>
<g style="stroke:#000000;stroke-width:3.0;fill:#ff0000">
<circle cx="1534.479" cy="800.000" r="26.9"/>
<circle cx="1436.078" cy="1167.240" r="26.9"/>
<circle cx="1167.240" cy="1436.078" r="26.9"/>
<circle cx="800.000" cy="1534.479" r="26.9"/>
<circle cx="432.760" cy="1436.078" r="26.9"/>
<circle cx="163.923" cy="1167.240" r="26.9"/>
<circle cx="65.521" cy="800.000" r="26.9"/>
<circle cx="163.923" cy="432.760" r="26.9"/>
<circle cx="432.760" cy="163.923" r="26.9"/>
<circle cx="800.000" cy="65.521" r="26.9"/>
<circle cx="1167.240" cy="163.923" r="26.9"/>
<circle cx="1436.078" cy="432.760" r="26.9"/>
</g>
</svg>
